<svg xmlns="http://www.w3.org/2000/svg" width="151" height="23" viewBox="0 0 151 23">
  <path fill="#292929" fill-rule="evenodd" d="M77.4023438,38.8359375 L84.5625,38.8359375 L84.5625,42 L73.2890625,42 L73.2890625,24.9375 L77.4023438,24.9375 L77.4023438,38.8359375 Z M85.6171875,35.5429688 C85.6171875,34.6210891 85.7499987,33.7656289 86.015625,32.9765625 C86.2812513,32.1874961 86.6718724,31.5039091 87.1875,30.9257812 C87.7031276,30.3476534 88.3417931,29.896486 89.1035156,29.5722656 C89.8652382,29.2480453 90.7382763,29.0859375 91.7226562,29.0859375 C92.7226613,29.0859375 93.6035118,29.2480453 94.3652344,29.5722656 C95.1269569,29.896486 95.7656224,30.3476534 96.28125,30.9257812 C96.7968776,31.5039091 97.1874987,32.1874961 97.453125,32.9765625 C97.7187513,33.7656289 97.8515625,34.6210891 97.8515625,35.5429688 L97.8515625,35.7890625 C97.8515625,36.7187546 97.7207044,37.5761679 97.4589844,38.3613281 C97.1972643,39.1464883 96.8085963,39.826169 96.2929688,40.4003906 C95.7773412,40.9746122 95.1386757,41.4238265 94.3769531,41.7480469 C93.6152306,42.0722672 92.7382862,42.234375 91.7460938,42.234375 C90.7539013,42.234375 89.8769569,42.0722672 89.1152344,41.7480469 C88.3535118,41.4238265 87.7128932,40.9746122 87.1933594,40.4003906 C86.6738255,39.826169 86.2812513,39.1464883 86.015625,38.3613281 C85.7499987,37.5761679 85.6171875,36.7187546 85.6171875,35.7890625 L85.6171875,35.5429688 Z M89.5664062,35.7890625 C89.5664062,36.2656274 89.599609,36.7109354 89.6660156,37.125 C89.7324222,37.5390646 89.8496085,37.898436 90.0175781,38.203125 C90.1855477,38.507814 90.4101548,38.748046 90.6914062,38.9238281 C90.9726577,39.0996103 91.3242166,39.1875 91.7460938,39.1875 C92.1601583,39.1875 92.505858,39.0996103 92.7832031,38.9238281 C93.0605483,38.748046 93.2812492,38.507814 93.4453125,38.203125 C93.6093758,37.898436 93.7265621,37.5390646 93.796875,37.125 C93.8671879,36.7109354 93.9023438,36.2656274 93.9023438,35.7890625 L93.9023438,35.5429688 C93.9023438,35.0820289 93.869141,34.6445333 93.8027344,34.2304688 C93.7363278,33.8164042 93.6191415,33.4550797 93.4511719,33.1464844 C93.2832023,32.8378891 93.0585952,32.5917978 92.7773438,32.4082031 C92.4960923,32.2246085 92.1445334,32.1328125 91.7226562,32.1328125 C91.3085917,32.1328125 90.962892,32.2246085 90.6855469,32.4082031 C90.4082017,32.5917978 90.1875008,32.8378891 90.0234375,33.1464844 C89.8593742,33.4550797 89.7421879,33.8164042 89.671875,34.2304688 C89.6015621,34.6445333 89.5664062,35.0820289 89.5664062,35.5429688 L89.5664062,35.7890625 Z M99.1289062,35.5664062 C99.1289062,34.6054639 99.2480457,33.7265665 99.4863281,32.9296875 C99.7246106,32.1328085 100.068357,31.4492216 100.517578,30.8789062 C100.966799,30.3085909 101.513669,29.8671891 102.158203,29.5546875 C102.802738,29.2421859 103.52734,29.0859375 104.332031,29.0859375 C105.050785,29.0859375 105.658201,29.2031238 106.154297,29.4375 C106.650393,29.6718762 107.074217,29.9999979 107.425781,30.421875 L107.566406,29.3203125 L111.152344,29.3203125 L111.152344,41.5078125 C111.152344,42.3906294 110.996095,43.1718716 110.683594,43.8515625 C110.371092,44.5312534 109.931643,45.1035133 109.365234,45.5683594 C108.798825,46.0332054 108.119145,46.3867175 107.326172,46.6289062 C106.533199,46.871095 105.656255,46.9921875 104.695312,46.9921875 C104.273435,46.9921875 103.837893,46.9511723 103.388672,46.8691406 C102.939451,46.787109 102.507815,46.6660164 102.09375,46.5058594 C101.679685,46.3457023 101.291017,46.1484387 100.927734,45.9140625 C100.564451,45.6796863 100.253908,45.4062516 99.9960938,45.09375 L101.648438,42.7734375 C101.960939,43.1406268 102.359373,43.4492175 102.84375,43.6992188 C103.328127,43.94922 103.898434,44.0742188 104.554688,44.0742188 C105.414067,44.0742188 106.066404,43.8496116 106.511719,43.4003906 C106.957033,42.9511696 107.179688,42.3125041 107.179688,41.484375 L107.179688,40.9804688 C106.820311,41.3789082 106.406252,41.6874989 105.9375,41.90625 C105.468748,42.1250011 104.925784,42.234375 104.308594,42.234375 C103.503902,42.234375 102.781253,42.0722672 102.140625,41.7480469 C101.499997,41.4238265 100.957033,40.9765654 100.511719,40.40625 C100.066404,39.8359346 99.7246106,39.1582071 99.4863281,38.3730469 C99.2480457,37.5878867 99.1289062,36.7343796 99.1289062,35.8125 L99.1289062,35.5664062 Z M103.089844,35.8125 C103.089844,36.2890649 103.134765,36.7324198 103.224609,37.1425781 C103.314454,37.5527364 103.451171,37.9101547 103.634766,38.2148438 C103.81836,38.5195328 104.05078,38.7578116 104.332031,38.9296875 C104.613283,39.1015634 104.941404,39.1875 105.316406,39.1875 C105.761721,39.1875 106.136717,39.113282 106.441406,38.9648438 C106.746095,38.8164055 106.992187,38.6054701 107.179688,38.3320312 L107.179688,33 C106.992187,32.7187486 106.748048,32.503907 106.447266,32.3554688 C106.146483,32.2070305 105.777346,32.1328125 105.339844,32.1328125 C104.972654,32.1328125 104.648439,32.2187491 104.367188,32.390625 C104.085936,32.5625009 103.851563,32.8027328 103.664062,33.1113281 C103.476562,33.4199234 103.333985,33.783201 103.236328,34.2011719 C103.138671,34.6191427 103.089844,35.0742163 103.089844,35.5664062 L103.089844,35.8125 Z M112.898438,35.5429688 C112.898438,34.6210891 113.031249,33.7656289 113.296875,32.9765625 C113.562501,32.1874961 113.953122,31.5039091 114.46875,30.9257812 C114.984378,30.3476534 115.623043,29.896486 116.384766,29.5722656 C117.146488,29.2480453 118.019526,29.0859375 119.003906,29.0859375 C120.003911,29.0859375 120.884762,29.2480453 121.646484,29.5722656 C122.408207,29.896486 123.046872,30.3476534 123.5625,30.9257812 C124.078128,31.5039091 124.468749,32.1874961 124.734375,32.9765625 C125.000001,33.7656289 125.132812,34.6210891 125.132812,35.5429688 L125.132812,35.7890625 C125.132812,36.7187546 125.001954,37.5761679 124.740234,38.3613281 C124.478514,39.1464883 124.089846,39.826169 123.574219,40.4003906 C123.058591,40.9746122 122.419926,41.4238265 121.658203,41.7480469 C120.896481,42.0722672 120.019536,42.234375 119.027344,42.234375 C118.035151,42.234375 117.158207,42.0722672 116.396484,41.7480469 C115.634762,41.4238265 114.994143,40.9746122 114.474609,40.4003906 C113.955076,39.826169 113.562501,39.1464883 113.296875,38.3613281 C113.031249,37.5761679 112.898438,36.7187546 112.898438,35.7890625 L112.898438,35.5429688 Z M116.847656,35.7890625 C116.847656,36.2656274 116.880859,36.7109354 116.947266,37.125 C117.013672,37.5390646 117.130859,37.898436 117.298828,38.203125 C117.466798,38.507814 117.691405,38.748046 117.972656,38.9238281 C118.253908,39.0996103 118.605467,39.1875 119.027344,39.1875 C119.441408,39.1875 119.787108,39.0996103 120.064453,38.9238281 C120.341798,38.748046 120.562499,38.507814 120.726562,38.203125 C120.890626,37.898436 121.007812,37.5390646 121.078125,37.125 C121.148438,36.7109354 121.183594,36.2656274 121.183594,35.7890625 L121.183594,35.5429688 C121.183594,35.0820289 121.150391,34.6445333 121.083984,34.2304688 C121.017578,33.8164042 120.900391,33.4550797 120.732422,33.1464844 C120.564452,32.8378891 120.339845,32.5917978 120.058594,32.4082031 C119.777342,32.2246085 119.425783,32.1328125 119.003906,32.1328125 C118.589842,32.1328125 118.244142,32.2246085 117.966797,32.4082031 C117.689452,32.5917978 117.468751,32.8378891 117.304688,33.1464844 C117.140624,33.4550797 117.023438,33.8164042 116.953125,34.2304688 C116.882812,34.6445333 116.847656,35.0820289 116.847656,35.5429688 L116.847656,35.7890625 Z M143.613281,34.7695312 L137.144531,34.7695312 L137.144531,38.8359375 L144.785156,38.8359375 L144.785156,42 L133.03125,42 L133.03125,24.9375 L144.808594,24.9375 L144.808594,28.1132812 L137.144531,28.1132812 L137.144531,31.7109375 L143.613281,31.7109375 L143.613281,34.7695312 Z M151.417969,32.8125 L153.257812,29.3203125 L157.359375,29.3203125 L154.019531,35.4960938 L157.523438,42 L153.398438,42 L151.40625,38.25 L149.449219,42 L145.300781,42 L148.816406,35.4960938 L145.488281,29.3203125 L149.636719,29.3203125 L151.417969,32.8125 Z M165.773438,42 C165.6875,41.8437492 165.615235,41.6699228 165.556641,41.4785156 C165.498047,41.2871084 165.445313,41.0820323 165.398438,40.8632812 C165.093748,41.2460957 164.699221,41.5703112 164.214844,41.8359375 C163.730466,42.1015638 163.109379,42.234375 162.351562,42.234375 C161.765622,42.234375 161.212893,42.1406259 160.693359,41.953125 C160.173826,41.7656241 159.718752,41.505861 159.328125,41.1738281 C158.937498,40.8417952 158.626954,40.4414086 158.396484,39.9726562 C158.166014,39.5039039 158.050781,38.9882841 158.050781,38.4257812 C158.050781,37.769528 158.169921,37.1835963 158.408203,36.6679688 C158.646486,36.1523412 159.009763,35.7167987 159.498047,35.3613281 C159.986331,35.0058576 160.603512,34.7324228 161.349609,34.5410156 C162.095707,34.3496084 162.980464,34.2539062 164.003906,34.2539062 L165.222656,34.2539062 L165.222656,33.5859375 C165.222656,33.0468723 165.10547,32.6210953 164.871094,32.3085938 C164.636718,31.9960922 164.250003,31.8398438 163.710938,31.8398438 C163.25781,31.8398438 162.910157,31.9531239 162.667969,32.1796875 C162.42578,32.4062511 162.304688,32.7539039 162.304688,33.2226562 L158.355469,33.2226562 C158.355469,32.6367158 158.486327,32.0898463 158.748047,31.5820312 C159.009767,31.0742162 159.38281,30.6367206 159.867188,30.2695312 C160.351565,29.9023419 160.935543,29.6132823 161.619141,29.4023438 C162.302738,29.1914052 163.066402,29.0859375 163.910156,29.0859375 C164.667973,29.0859375 165.369137,29.1796866 166.013672,29.3671875 C166.658206,29.5546884 167.214841,29.8378887 167.683594,30.2167969 C168.152346,30.595705 168.51953,31.0683565 168.785156,31.6347656 C169.050783,32.2011747 169.183594,32.8593713 169.183594,33.609375 L169.183594,38.8007812 C169.183594,39.2148458 169.195312,39.5742172 169.21875,39.8789062 C169.242188,40.1835953 169.277344,40.4511707 169.324219,40.6816406 C169.371094,40.9121105 169.427734,41.1171866 169.494141,41.296875 C169.560547,41.4765634 169.636718,41.6445305 169.722656,41.8007812 L169.722656,42 L165.773438,42 Z M163.300781,39.421875 C163.792971,39.421875 164.20117,39.3164073 164.525391,39.1054688 C164.849611,38.8945302 165.082031,38.6562513 165.222656,38.390625 L165.222656,36.3632812 L163.980469,36.3632812 C163.613279,36.3632812 163.302736,36.414062 163.048828,36.515625 C162.794921,36.617188 162.591798,36.7539054 162.439453,36.9257812 C162.287109,37.0976571 162.177735,37.2949208 162.111328,37.5175781 C162.044922,37.7402355 162.011719,37.972655 162.011719,38.2148438 C162.011719,38.5742205 162.132811,38.8652333 162.375,39.0878906 C162.617189,39.310548 162.925779,39.421875 163.300781,39.421875 L163.300781,39.421875 Z M175.101562,29.3203125 L175.230469,30.8085938 C175.652346,30.2695286 176.162106,29.8476578 176.759766,29.5429688 C177.357425,29.2382797 178.054684,29.0859375 178.851562,29.0859375 C179.593754,29.0859375 180.246091,29.2363266 180.808594,29.5371094 C181.371097,29.8378921 181.80078,30.3242154 182.097656,30.9960938 C182.503908,30.3945282 183.015622,29.9257829 183.632812,29.5898438 C184.250003,29.2539046 184.980465,29.0859375 185.824219,29.0859375 C186.402347,29.0859375 186.933591,29.169921 187.417969,29.3378906 C187.902346,29.5058602 188.320311,29.7832012 188.671875,30.1699219 C189.023439,30.5566426 189.296874,31.06445 189.492188,31.6933594 C189.687501,32.3222688 189.785156,33.0976516 189.785156,34.0195312 L189.785156,42 L185.824219,42 L185.824219,34.0195312 C185.824219,33.6289043 185.789063,33.3105481 185.71875,33.0644531 C185.648437,32.8183581 185.548829,32.6269538 185.419922,32.4902344 C185.291015,32.3535149 185.13086,32.2597659 184.939453,32.2089844 C184.748046,32.1582029 184.535157,32.1328125 184.300781,32.1328125 C183.894529,32.1328125 183.546876,32.2246085 183.257812,32.4082031 C182.968749,32.5917978 182.734376,32.8476546 182.554688,33.1757812 C182.5625,33.2382816 182.566406,33.2988278 182.566406,33.3574219 L182.566406,33.5390625 L182.566406,42 L178.605469,42 L178.605469,34.0429688 C178.605469,33.6445293 178.572266,33.3203137 178.505859,33.0703125 C178.439453,32.8203113 178.341798,32.6250007 178.212891,32.484375 C178.083984,32.3437493 177.923829,32.2500002 177.732422,32.203125 C177.541015,32.1562498 177.32422,32.1328125 177.082031,32.1328125 C176.699217,32.1328125 176.36133,32.2246085 176.068359,32.4082031 C175.775389,32.5917978 175.535157,32.8476546 175.347656,33.1757812 L175.347656,42 L171.398438,42 L171.398438,29.3203125 L175.101562,29.3203125 Z M203.8125,35.7539062 C203.8125,36.6757859 203.707032,37.5312461 203.496094,38.3203125 C203.285155,39.1093789 202.970705,39.794919 202.552734,40.3769531 C202.134764,40.9589873 201.619144,41.4140609 201.005859,41.7421875 C200.392575,42.0703141 199.687504,42.234375 198.890625,42.234375 C198.265622,42.234375 197.718752,42.1210949 197.25,41.8945312 C196.781248,41.6679676 196.371096,41.3554707 196.019531,40.9570312 L196.019531,46.875 L192.070312,46.875 L192.070312,29.3203125 L195.761719,29.3203125 L195.878906,30.4921875 C196.238283,30.0468728 196.660154,29.7011731 197.144531,29.4550781 C197.628909,29.2089831 198.203122,29.0859375 198.867188,29.0859375 C199.671879,29.0859375 200.382809,29.2402328 201,29.5488281 C201.617191,29.8574234 202.13281,30.2929659 202.546875,30.8554688 C202.96094,31.4179716 203.27539,32.0937461 203.490234,32.8828125 C203.705079,33.6718789 203.8125,34.5468702 203.8125,35.5078125 L203.8125,35.7539062 Z M199.863281,35.5078125 C199.863281,35.0156225 199.828125,34.5625021 199.757812,34.1484375 C199.6875,33.7343729 199.576173,33.3789077 199.423828,33.0820312 C199.271484,32.7851548 199.068361,32.5527352 198.814453,32.3847656 C198.560546,32.216796 198.253908,32.1328125 197.894531,32.1328125 C197.410154,32.1328125 197.015627,32.216796 196.710938,32.3847656 C196.406248,32.5527352 196.175782,32.8046858 196.019531,33.140625 L196.019531,38.1328125 C196.183595,38.4687517 196.417967,38.7285147 196.722656,38.9121094 C197.027345,39.095704 197.425779,39.1875 197.917969,39.1875 C198.292971,39.1875 198.603514,39.0976571 198.849609,38.9179688 C199.095704,38.7382804 199.294921,38.4941422 199.447266,38.1855469 C199.59961,37.8769516 199.707031,37.513674 199.769531,37.0957031 C199.832032,36.6777323 199.863281,36.2304711 199.863281,35.7539062 L199.863281,35.5078125 Z M209.71875,42 L205.757812,42 L205.757812,24 L209.71875,24 L209.71875,42 Z M218.285156,42.234375 C217.253901,42.234375 216.332035,42.0703141 215.519531,41.7421875 C214.707027,41.4140609 214.02344,40.9687528 213.46875,40.40625 C212.91406,39.8437472 212.490236,39.19141 212.197266,38.4492188 C211.904295,37.7070275 211.757812,36.9179729 211.757812,36.0820312 L211.757812,35.6367188 C211.757812,34.7148391 211.884764,33.8535196 212.138672,33.0527344 C212.392579,32.2519491 212.775388,31.5585967 213.287109,30.9726562 C213.798831,30.3867158 214.435543,29.9257829 215.197266,29.5898438 C215.958988,29.2539046 216.847651,29.0859375 217.863281,29.0859375 C218.761723,29.0859375 219.568356,29.2304673 220.283203,29.5195312 C220.99805,29.8085952 221.603513,30.2226536 222.099609,30.7617188 C222.595706,31.3007839 222.974608,31.9531212 223.236328,32.71875 C223.498048,33.4843788 223.628906,34.3437452 223.628906,35.296875 L223.628906,36.9023438 L215.777344,36.9023438 C215.917969,37.6132848 216.22656,38.171873 216.703125,38.578125 C217.17969,38.984377 217.796871,39.1875 218.554688,39.1875 C219.093753,39.1875 219.623044,39.0859385 220.142578,38.8828125 C220.662112,38.6796865 221.109373,38.3437523 221.484375,37.875 L223.289062,40.0078125 C223.085936,40.2890639 222.826173,40.5624987 222.509766,40.828125 C222.193358,41.0937513 221.824221,41.3300771 221.402344,41.5371094 C220.980467,41.7441417 220.507815,41.9121087 219.984375,42.0410156 C219.460935,42.1699225 218.894534,42.234375 218.285156,42.234375 L218.285156,42.234375 Z M217.839844,32.1328125 C217.503905,32.1328125 217.214845,32.1914057 216.972656,32.3085938 C216.730468,32.4257818 216.529298,32.5859365 216.369141,32.7890625 C216.208984,32.9921885 216.082032,33.2343736 215.988281,33.515625 C215.894531,33.7968764 215.824219,34.1015609 215.777344,34.4296875 L219.761719,34.4296875 L219.761719,34.125 C219.777344,33.4921843 219.617189,33.0019549 219.28125,32.6542969 C218.945311,32.3066389 218.464847,32.1328125 217.839844,32.1328125 L217.839844,32.1328125 Z" transform="translate(-73 -24)"/>
</svg>
